<svg width="120" height="120" viewBox="0 0 120 120" fill="none" xmlns="http://www.w3.org/2000/svg">
  <!-- Background -->
  <rect width="120" height="120" rx="24" fill="#6A5ACD"/>
  
  <!-- Shopping bag outline -->
  <path d="M85 40H35C32.2386 40 30 42.2386 30 45V85C30 87.7614 32.2386 90 35 90H85C87.7614 90 90 87.7614 90 85V45C90 42.2386 87.7614 40 85 40Z" stroke="white" stroke-width="6" stroke-linecap="round" stroke-linejoin="round"/>
  
  <!-- Bag handles -->
  <path d="M40 40C40 34.4772 44.4772 30 50 30H70C75.5228 30 80 34.4772 80 40" stroke="white" stroke-width="6" stroke-linecap="round" stroke-linejoin="round"/>
  
  <!-- Color palette circles -->
  <circle cx="45" cy="60" r="8" fill="#FF8C00"/>
  <circle cx="60" cy="60" r="8" fill="#00CED1"/>
  <circle cx="75" cy="60" r="8" fill="#FF4500"/>
  
  <!-- T-shirt icon -->
  <path d="M50 75H70C72.2091 75 74 76.7909 74 79V85H46V79C46 76.7909 47.7909 75 50 75Z" fill="white"/>
  <path d="M55 75V70H65V75" stroke="white" stroke-width="2"/>
</svg>
